<mxfile host="app.diagrams.net" modified="2021-10-04T09:24:17.939Z" agent="5.0 (Macintosh; Intel Mac OS X 10_15_7) AppleWebKit/537.36 (KHTML, like Gecko) Chrome/94.0.4606.61 Safari/537.36" etag="DDcGj9lTbg743Qv1qxxB" version="15.4.1" type="github">
  <diagram id="NcejznuSpz1hfUzmKxQE" name="Page-1">
    <mxGraphModel dx="1191" dy="841" grid="1" gridSize="10" guides="1" tooltips="1" connect="1" arrows="1" fold="1" page="1" pageScale="1" pageWidth="850" pageHeight="1100" math="0" shadow="0">
      <root>
        <mxCell id="0" />
        <mxCell id="1" parent="0" />
        <mxCell id="JPDMa77N0OKO5Pyy8LSN-1" value="Label&lt;br&gt;name: str&lt;br&gt;value: float&lt;br&gt;source: str&lt;br&gt;update_time" style="ellipse;whiteSpace=wrap;html=1;aspect=fixed;" vertex="1" parent="1">
          <mxGeometry x="310" y="250" width="110" height="110" as="geometry" />
        </mxCell>
        <mxCell id="JPDMa77N0OKO5Pyy8LSN-2" value="Claim" style="ellipse;whiteSpace=wrap;html=1;aspect=fixed;" vertex="1" parent="1">
          <mxGeometry x="310" y="460" width="110" height="110" as="geometry" />
        </mxCell>
        <mxCell id="JPDMa77N0OKO5Pyy8LSN-3" value="" style="endArrow=classic;html=1;rounded=0;edgeStyle=orthogonalEdgeStyle;entryX=0.5;entryY=1;entryDx=0;entryDy=0;exitX=0.5;exitY=0;exitDx=0;exitDy=0;" edge="1" parent="1" source="JPDMa77N0OKO5Pyy8LSN-2" target="JPDMa77N0OKO5Pyy8LSN-1">
          <mxGeometry relative="1" as="geometry">
            <mxPoint x="370" y="430" as="sourcePoint" />
            <mxPoint x="470" y="430" as="targetPoint" />
          </mxGeometry>
        </mxCell>
        <mxCell id="JPDMa77N0OKO5Pyy8LSN-4" value="HAS_LABEL" style="edgeLabel;resizable=0;html=1;align=center;verticalAlign=middle;" connectable="0" vertex="1" parent="JPDMa77N0OKO5Pyy8LSN-3">
          <mxGeometry relative="1" as="geometry" />
        </mxCell>
        <mxCell id="JPDMa77N0OKO5Pyy8LSN-5" value="" style="edgeStyle=elbowEdgeStyle;elbow=horizontal;endArrow=classic;html=1;rounded=0;exitX=0.5;exitY=0;exitDx=0;exitDy=0;entryX=1;entryY=0.5;entryDx=0;entryDy=0;" edge="1" parent="1" source="JPDMa77N0OKO5Pyy8LSN-1" target="JPDMa77N0OKO5Pyy8LSN-1">
          <mxGeometry width="50" height="50" relative="1" as="geometry">
            <mxPoint x="400" y="460" as="sourcePoint" />
            <mxPoint x="450" y="410" as="targetPoint" />
            <Array as="points">
              <mxPoint x="480" y="270" />
              <mxPoint x="430" y="190" />
            </Array>
          </mxGeometry>
        </mxCell>
        <mxCell id="JPDMa77N0OKO5Pyy8LSN-6" value="HAS_CHILD" style="edgeLabel;html=1;align=center;verticalAlign=middle;resizable=0;points=[];" vertex="1" connectable="0" parent="JPDMa77N0OKO5Pyy8LSN-5">
          <mxGeometry x="0.1217" y="3" relative="1" as="geometry">
            <mxPoint as="offset" />
          </mxGeometry>
        </mxCell>
        <mxCell id="JPDMa77N0OKO5Pyy8LSN-7" value="Task" style="ellipse;whiteSpace=wrap;html=1;aspect=fixed;" vertex="1" parent="1">
          <mxGeometry x="310" y="50" width="110" height="110" as="geometry" />
        </mxCell>
        <mxCell id="JPDMa77N0OKO5Pyy8LSN-8" value="" style="endArrow=classic;html=1;rounded=0;edgeStyle=orthogonalEdgeStyle;exitX=0.5;exitY=1;exitDx=0;exitDy=0;" edge="1" parent="1" source="JPDMa77N0OKO5Pyy8LSN-7">
          <mxGeometry relative="1" as="geometry">
            <mxPoint x="375" y="470" as="sourcePoint" />
            <mxPoint x="365" y="250" as="targetPoint" />
          </mxGeometry>
        </mxCell>
        <mxCell id="JPDMa77N0OKO5Pyy8LSN-9" value="HAS_LABEL" style="edgeLabel;resizable=0;html=1;align=center;verticalAlign=middle;" connectable="0" vertex="1" parent="JPDMa77N0OKO5Pyy8LSN-8">
          <mxGeometry relative="1" as="geometry" />
        </mxCell>
      </root>
    </mxGraphModel>
  </diagram>
</mxfile>
